<svg width="47" height="59" fill="none" xmlns="http://www.w3.org/2000/svg"><path d="M33.781 38.188h4.407V35.25H33.78v2.938Zm4.407 5.874H33.78v-2.937h4.407v2.938Zm-4.407 5.876h4.407V47H33.78v2.938Z" fill="#000"/><path fill-rule="evenodd" clip-rule="evenodd" d="m13.219 0 23.5 8.813v20.562h5.875a1.468 1.468 0 0 1 1.468 1.469v24.968h1.47a1.468 1.468 0 1 1 0 2.938H1.468a1.469 1.469 0 1 1 0-2.938h1.468V24.97a1.469 1.469 0 0 1 1.47-1.469h2.937V13.219h2.937V23.5h2.938V0Zm27.906 55.813h-2.938v-2.938h-4.406v2.938h-2.937v-23.5h10.281v23.5ZM13.219 26.436H5.875v29.375h7.344V26.439Zm7.344-13.218h-2.938v2.937h2.938V13.22Zm2.937 0h2.938v2.937H23.5V13.22Zm8.813 0h-2.938v2.937h2.938V13.22Zm-14.688 5.875h2.938v2.937h-2.938v-2.937Zm8.813 0H23.5v2.937h2.938v-2.937Zm2.937 0h2.938v2.937h-2.938v-2.937Zm-8.813 5.875h-2.937v2.937h2.938V24.97Zm2.938 0h2.938v2.937H23.5V24.97Zm8.813 0h-2.938v2.937h2.938V24.97Zm-14.688 5.875h2.938v2.937h-2.938v-2.937Zm8.813 0H23.5v2.937h2.938v-2.937Zm-5.875 5.875h-2.938v2.937h2.938V36.72Zm2.937 0h2.938v2.937H23.5V36.72Zm-5.875 5.875h2.938v2.937h-2.938v-2.937Zm8.813 0H23.5v2.937h2.938v-2.937Zm-5.875 5.875h-2.938v2.937h2.938V48.47Zm2.937 0h2.938v2.937H23.5V48.47Z" fill="#000"/></svg>