<svg width="57" height="56" fill="none" xmlns="http://www.w3.org/2000/svg"><path d="M27.21 22.472c.227.075.46.13.697.165a8.1 8.1 0 0 0 1.146.203 4.027 4.027 0 0 0 7.828.233c.444-1.6.672-3.253.678-4.914a19.216 19.216 0 0 0 2.378-4.275l.026-.06.218-.53.279-.704c.298-.772.58-1.55.845-2.333l.055-.163.02-.065c.138-.407.277-.86.407-1.315.077-.263.15-.53.222-.798.334-1.191.554-2.412.655-3.646v-.06A4.071 4.071 0 0 0 39.14.031 3.99 3.99 0 0 0 36.83.43a4.071 4.071 0 0 0-2.22 3.33v.02a17.307 17.307 0 0 1-.876 3.65c-.203.611-.407 1.191-.61 1.71a8.663 8.663 0 0 0-1.27-.529l-.039-.018a7.312 7.312 0 0 0-4.604 13.878v.002Zm7.707.063a1.99 1.99 0 0 1-3.764.238c.387-.069.768-.167 1.138-.293a9.028 9.028 0 0 0 3.031-1.811 17.603 17.603 0 0 1-.405 1.866Zm-10.401-8.671a5.264 5.264 0 0 1 6.656-3.338l.06.02c.398.126.78.293 1.143.497l-.043.1v.024a11.048 11.048 0 0 1-1.832 2.909l-.032.032-.051.06c-.065.076-.133.15-.204.221a4.388 4.388 0 0 0-.204-.077l-.06-.02a1.29 1.29 0 0 0-1.629.813 1.172 1.172 0 0 0 .061.977c.122.261.33.47.588.595.07.016.137.035.204.057.183.065.374.108.568.124.31.018.618-.052.89-.204.142-.073.278-.156.406-.252.342-.269.656-.57.933-.906l.02-.02a12.875 12.875 0 0 0 2.371-3.884.061.061 0 0 0 0-.03l.02-.05c.114-.264.224-.531.33-.8l.07-.176.069-.18a27.169 27.169 0 0 0 1.797-6.446c.039-.528.282-1.02.678-1.372a1.993 1.993 0 0 1 1.44-.5c.437.024.854.195 1.18.488a2.035 2.035 0 0 1 .692 1.608c-.02.324-.06.666-.112 1.018a23.098 23.098 0 0 1-.684 2.966l-.085.285a47.985 47.985 0 0 1-1.252 3.59l-.067.171c-.116.292-.234.583-.355.873l-.03.074-.175.423a17.339 17.339 0 0 1-2.878 4.56 7.604 7.604 0 0 1-3.728 2.564 5.456 5.456 0 0 1-2.123.147 5.98 5.98 0 0 1-.858-.171 1.837 1.837 0 0 1-.436-.092 5.277 5.277 0 0 1-3.338-6.678ZM20.47 4.028A1.954 1.954 0 1 1 18.211.84a1.954 1.954 0 0 1 2.26 3.19ZM44.71 42.39a1.973 1.973 0 0 1 3.082 1.237 1.975 1.975 0 1 1-3.082-1.237Zm2.033-28.323a2.361 2.361 0 1 0 0-4.722 2.361 2.361 0 0 0 0 4.722Zm-37.282-.399a2.362 2.362 0 1 1-2.622-3.926 2.362 2.362 0 0 1 2.622 3.928v-.002Z" fill="#000"/><path d="M55.759 26.236a2.126 2.126 0 0 1-1.627.065 13.528 13.528 0 0 0-13.02 1.972 28.652 28.652 0 0 1 13.48 3.764 4.376 4.376 0 0 1-4.246 7.654 19.829 19.829 0 0 0-16.245-1.655 17.056 17.056 0 0 1 1.516 4.142c.116.43.173.875.171 1.32a3.998 3.998 0 0 1-.977 3.138 2.935 2.935 0 0 1-.54.425 4.886 4.886 0 0 1-2.147 1.203L6.196 55.205A4.925 4.925 0 0 1 .171 49.16l6.941-25.933a4.886 4.886 0 0 1 1.221-2.168c.116-.187.253-.361.407-.518a3.945 3.945 0 0 1 3.043-.982c.495-.012.99.051 1.466.188 1.264.285 2.49.72 3.652 1.294a14.97 14.97 0 0 0-1.566-9.64 2.39 2.39 0 0 1 4.214-2.26 19.775 19.775 0 0 1 1.677 14.473 42.883 42.883 0 0 1 4.497 3.674 2.341 2.341 0 0 1 3.413 3.202 32.775 32.775 0 0 1 9.205-2.14 2.138 2.138 0 0 1 .008-3.34 17.79 17.79 0 0 1 17.274-2.707 2.135 2.135 0 0 1 .136 3.933ZM19.347 41.21l-.368-.315.338.289.03.026Zm0 0 .27.228-.27-.228ZM4.175 53.237a2.892 2.892 0 0 0 1.496.002l1.176-.307a22.986 22.986 0 0 1-4.443-4.234l-.267.997a2.889 2.889 0 0 0 2.038 3.542Zm3.248-5.103a20.886 20.886 0 0 0 4.843 3.34l5.695-1.524a35.646 35.646 0 0 1-6.167-4.61 39.132 39.132 0 0 1-6.396-7.844L3.782 43.54a20.66 20.66 0 0 0 3.641 4.594Zm7.16-5.77a33.18 33.18 0 0 0 9.22 6.024l5.07-1.36a34.012 34.012 0 0 1-12.235-8.29 45.469 45.469 0 0 1-3.387-3.766 34.04 34.04 0 0 1-1.31-1.736 26.324 26.324 0 0 1-3.608-6.731l-1.43 5.416a37.97 37.97 0 0 0 7.68 10.442Zm39.761-7.96a2.34 2.34 0 0 0-.724-.586h-.01a26.769 26.769 0 0 0-22.91-1.744l-.391.142.018.02a26.707 26.707 0 0 0-10.055 7.076c.527.462 1.038.886 1.545 1.293a27.7 27.7 0 0 0 2.239 1.628 20.662 20.662 0 0 1 8.199-5.74 22.105 22.105 0 0 1 19.083 1.41 2.341 2.341 0 0 0 3.006-3.499Z" fill="#000"/></svg>