<svg width="48" height="48" fill="none" xmlns="http://www.w3.org/2000/svg"><path d="M13.92 0h20.16C41.76 0 48 6.24 48 13.92v20.16A13.92 13.92 0 0 1 34.08 48H13.92C6.24 48 0 41.76 0 34.08V13.92A13.92 13.92 0 0 1 13.92 0Zm-.48 4.8a8.64 8.64 0 0 0-8.64 8.64v21.12a8.635 8.635 0 0 0 8.64 8.64h21.12a8.64 8.64 0 0 0 8.64-8.64V13.44a8.635 8.635 0 0 0-8.64-8.64H13.44ZM36.6 8.4a3 3 0 1 1 0 6 3 3 0 0 1 0-6ZM24 12a12 12 0 1 1 0 24 12 12 0 0 1 0-24Zm0 4.8a7.2 7.2 0 1 0 0 14.4 7.2 7.2 0 0 0 0-14.4Z" fill="#E3E3E3"/></svg>