<svg width="29" height="29" fill="none" xmlns="http://www.w3.org/2000/svg"><path d="M8.41 0h12.18C25.23 0 29 3.77 29 8.41v12.18A8.41 8.41 0 0 1 20.59 29H8.41C3.77 29 0 25.23 0 20.59V8.41A8.41 8.41 0 0 1 8.41 0Zm-.29 2.9A5.22 5.22 0 0 0 2.9 8.12v12.76a5.217 5.217 0 0 0 5.22 5.22h12.76a5.22 5.22 0 0 0 5.22-5.22V8.12a5.217 5.217 0 0 0-5.22-5.22H8.12Zm13.993 2.175a1.812 1.812 0 1 1 0 3.625 1.812 1.812 0 0 1 0-3.625ZM14.5 7.25a7.25 7.25 0 1 1 0 14.5 7.25 7.25 0 0 1 0-14.5Zm0 2.9a4.35 4.35 0 1 0 0 8.7 4.35 4.35 0 0 0 0-8.7Z" fill="#000"/></svg>