<svg width="62" height="56" fill="none" xmlns="http://www.w3.org/2000/svg"><path d="m43 6.986 9 9.002-6 3.001 12 12.004-9 3 12 12.004H33.999m6 9.003v-9.003M19 30.993l-6-6.002m6 3 6-6m-6 33.009V15.988M12.47 39.996a9 9 0 0 1-8.23-11.074 9.002 9.002 0 0 1 .913-14.503 9.005 9.005 0 0 1 8.083-13.416 9 9 0 0 1 5.762 2.291A8.999 8.999 0 0 1 33.831 8.3a9.005 9.005 0 0 1-.99 6.12 9.001 9.001 0 0 1 .915 14.503 9.004 9.004 0 0 1-8.757 11.088h-12l-.529-.014Z" stroke="#000" stroke-width="2" stroke-linecap="round" stroke-linejoin="round"/></svg>