<svg width="56" height="56" fill="none" xmlns="http://www.w3.org/2000/svg"><path d="M15.74 8.75c-1.05 0-1.75 1.05-1.75 1.75v8.75h-3.497V10.5c0-1.05-.7-1.75-1.749-1.75-1.05 0-1.749 1.05-1.749 1.75v8.75H3.498V10.5c0-1.05-.7-1.75-1.75-1.75C.7 8.75 0 9.8 0 10.5v11.55c0 3.15 2.448 5.6 5.246 5.95v24.5c0 2.1 1.4 3.5 3.498 3.5 2.099 0 3.498-1.4 3.498-3.5V28c2.798-.35 5.246-2.8 5.246-5.95V10.5c0-.7-.7-1.75-1.749-1.75Zm6.995 1.75v21h3.497v21c0 2.1 1.4 3.5 3.498 3.5 2.098 0 3.497-1.4 3.497-3.5V0c-5.945 0-10.492 4.55-10.492 10.5ZM47.218 7c-4.897 0-8.744 5.25-8.744 11.55-.35 4.2 1.749 8.05 5.246 10.5V52.5c0 2.1 1.4 3.5 3.498 3.5 2.099 0 3.498-1.4 3.498-3.5V29.05c3.497-2.45 5.596-6.3 5.246-10.5 0-6.3-3.847-11.55-8.744-11.55Z" fill="#000"/></svg>