<svg width="62" height="56" fill="none" xmlns="http://www.w3.org/2000/svg"><path d="M5.563 56c-1.585 0-2.907-.539-3.968-1.617C.532 53.303 0 51.958 0 50.347V36.75h24.111V42H37.89v-5.25H62v13.597c0 1.61-.53 2.954-1.591 4.032C59.346 55.46 58.022 56 56.437 56H5.563Zm21.993-17.5v-7h6.888v7h-6.888ZM0 33.25V16.152c0-1.61.532-2.954 1.595-4.032 1.06-1.08 2.383-1.62 3.968-1.62h15.104V5.652c0-1.61.531-2.954 1.594-4.032C23.322.54 24.644 0 26.226 0h9.541c1.585 0 2.908.54 3.972 1.62 1.06 1.079 1.59 2.423 1.59 4.032V10.5h15.105c1.584 0 2.907.54 3.968 1.62 1.063 1.079 1.595 2.423 1.595 4.033V33.25H37.885V28H24.108v5.25H0ZM24.111 10.5H37.89V5.652c0-.536-.22-1.03-.661-1.48-.444-.448-.93-.672-1.457-.672h-9.542c-.528 0-1.013.224-1.457.672-.44.45-.66.944-.66 1.48V10.5Z" fill="#000"/></svg>