<svg width="48" height="35" fill="none" xmlns="http://www.w3.org/2000/svg"><path d="m19.2 25 12.456-7.5L19.2 10v15ZM46.944 5.425c.312 1.175.528 2.75.672 4.75.168 2 .24 3.725.24 5.225L48 17.5c0 5.475-.384 9.5-1.056 12.075-.6 2.25-1.992 3.7-4.152 4.325-1.128.325-3.192.55-6.36.7-3.12.175-5.976.25-8.616.25L24 35c-10.056 0-16.32-.4-18.792-1.1-2.16-.625-3.552-2.075-4.152-4.325-.312-1.175-.528-2.75-.672-4.75-.168-2-.24-3.725-.24-5.225L0 17.5C0 12.025.384 8 1.056 5.425c.6-2.25 1.992-3.7 4.152-4.325C6.336.775 8.4.55 11.568.4c3.12-.175 5.976-.25 8.616-.25L24 0c10.056 0 16.32.4 18.792 1.1 2.16.625 3.552 2.075 4.152 4.325Z" fill="#E3E3E3"/></svg>