<svg width="29" height="21" fill="none" xmlns="http://www.w3.org/2000/svg"><path d="m11.6 15 7.525-4.5L11.6 6v9ZM28.362 3.255c.189.705.319 1.65.406 2.85.101 1.2.145 2.235.145 3.135L29 10.5c0 3.285-.232 5.7-.638 7.245-.362 1.35-1.203 2.22-2.508 2.595-.682.195-1.929.33-3.843.42a93.43 93.43 0 0 1-5.206.15L14.5 21c-6.075 0-9.86-.24-11.354-.66C1.842 19.965 1 19.095.638 17.745c-.189-.705-.319-1.65-.406-2.85a37.326 37.326 0 0 1-.145-3.135L0 10.5c0-3.285.232-5.7.638-7.245C1 1.905 1.842 1.035 3.147.66 3.828.465 5.075.33 6.989.24a93.43 93.43 0 0 1 5.205-.15L14.5 0c6.076 0 9.86.24 11.354.66 1.305.375 2.146 1.245 2.508 2.595Z" fill="#000"/></svg>