<svg width="57" height="56" viewBox="0 0 57 56" fill="none" xmlns="http://www.w3.org/2000/svg">
<path d="M27.2107 22.472C27.4366 22.5473 27.6707 22.6023 27.9068 22.6369C28.2834 22.7326 28.6661 22.7997 29.0528 22.8405C29.237 23.7266 29.7144 24.5249 30.4079 25.1065C31.1015 25.688 31.9708 26.0189 32.8755 26.0457C33.7803 26.0725 34.6676 25.7937 35.3944 25.2543C36.1212 24.7148 36.6451 23.9462 36.8814 23.0725C37.3252 21.4726 37.5531 19.8197 37.5592 18.1588C38.5306 16.841 39.3295 15.4045 39.9367 13.8842L39.9632 13.8231L40.181 13.2939L40.4599 12.5896C40.7578 11.818 41.0394 11.0403 41.3046 10.2569L41.3596 10.094L41.3799 10.0289C41.5183 9.62179 41.6567 9.1699 41.787 8.71394C41.8644 8.45136 41.9376 8.18471 42.0089 7.91602C42.3435 6.72458 42.563 5.50378 42.6643 4.2704V4.20934C42.6996 3.1998 42.3583 2.2132 41.7068 1.44126C41.0552 0.669327 40.1399 0.167196 39.1388 0.0324518C38.347 -0.0691566 37.5429 0.0691116 36.8305 0.429378C36.2049 0.746176 35.6717 1.21922 35.2826 1.80266C34.8935 2.38609 34.6618 3.06015 34.6098 3.75949V3.77984C34.4512 5.02454 34.1577 6.2483 33.7345 7.42953C33.5309 8.04019 33.3274 8.62031 33.1238 9.13937C32.7167 8.92971 32.2893 8.75262 31.8537 8.61013L31.815 8.59181C29.9821 8.00908 27.9934 8.17201 26.2798 9.04531C24.5662 9.9186 23.2657 11.4319 22.6601 13.2574C22.0544 15.0828 22.1925 17.0734 23.0442 18.7978C23.896 20.5222 25.3929 21.8416 27.2107 22.47V22.472ZM34.9171 22.5351C34.8088 22.937 34.5773 23.2948 34.255 23.5583C33.9328 23.8217 33.5361 23.9776 33.1207 24.0038C32.7053 24.0301 32.2921 23.9256 31.9392 23.7048C31.5864 23.4841 31.3116 23.1583 31.1535 22.7733C31.5402 22.7041 31.9209 22.6064 32.2913 22.4802C33.411 22.0817 34.441 21.4661 35.3222 20.6686C35.2204 21.2996 35.0861 21.9204 34.9171 22.5351ZM24.5156 13.8638C24.7333 13.2075 25.0782 12.6004 25.5306 12.0774C25.9829 11.5544 26.5339 11.1256 27.152 10.8156C27.7702 10.5056 28.4433 10.3204 29.1331 10.2706C29.8228 10.2209 30.5155 10.3075 31.1718 10.5256L31.2328 10.5459C31.6298 10.6721 32.0125 10.839 32.3748 11.0426L32.332 11.1423V11.1667C31.8769 12.226 31.2587 13.2074 30.5001 14.0755L30.4675 14.1081L30.4166 14.1671C30.3517 14.2437 30.2838 14.3177 30.2131 14.389C30.1458 14.3615 30.078 14.3357 30.0095 14.3116L29.9484 14.2913C29.6245 14.1842 29.2713 14.2097 28.9662 14.3623C28.661 14.5149 28.4287 14.7821 28.32 15.1055C28.2591 15.2631 28.233 15.432 28.2435 15.6007C28.254 15.7694 28.301 15.9337 28.3811 16.0825C28.5032 16.3431 28.7108 16.5527 28.9693 16.6769C29.0386 16.6932 29.1057 16.7115 29.1729 16.7339C29.3561 16.799 29.5474 16.8418 29.7408 16.8581C30.0507 16.8764 30.3593 16.8057 30.6303 16.6545C30.7728 16.5812 30.9092 16.4978 31.0374 16.4021C31.3794 16.1334 31.6929 15.8322 31.9697 15.4963L31.9901 15.4759C32.8995 14.4512 33.6396 13.2878 34.1823 12.0298C34.2457 11.8854 34.3054 11.7395 34.3614 11.5922C34.364 11.5822 34.364 11.5717 34.3614 11.5616L34.3818 11.5128C34.4951 11.2475 34.605 10.9808 34.7115 10.7128L34.7808 10.5357L34.85 10.3566C35.713 8.29056 36.3155 6.12476 36.6473 3.91012C36.686 3.38199 36.9292 2.88979 37.3252 2.53818C37.7196 2.18721 38.2372 2.00712 38.7643 2.03744C39.2019 2.06187 39.6192 2.23285 39.9449 2.52596C40.1726 2.72563 40.3529 2.9736 40.4726 3.25179C40.5923 3.52998 40.6485 3.83138 40.6369 4.13402C40.6166 4.45767 40.5779 4.79964 40.525 5.15178C40.3622 6.15326 40.1342 7.14659 39.8411 8.11754L39.7556 8.40251C39.3859 9.61546 38.9683 10.8133 38.5037 11.9932L38.4365 12.1642C38.3213 12.4563 38.2032 12.7474 38.0824 13.0374L38.0518 13.1107L37.8768 13.5341C37.161 15.1947 36.1899 16.7332 34.9986 18.0936C34.0452 19.3069 32.7453 20.2014 31.2715 20.6584C30.5803 20.8461 29.8589 20.8959 29.1485 20.8049C28.8584 20.769 28.5713 20.7118 28.2895 20.6339C28.1411 20.6211 27.9948 20.5904 27.8539 20.5423C27.1961 20.3232 26.5879 19.9766 26.0641 19.5223C25.5402 19.068 25.1111 18.5149 24.8011 17.8947C24.491 17.2745 24.3063 16.5993 24.2573 15.9077C24.2083 15.216 24.2961 14.5215 24.5156 13.8638ZM20.4711 4.02818C20.258 4.1792 20.0168 4.28597 19.7617 4.34219C19.5067 4.3984 19.2429 4.40292 18.9861 4.35548C18.7293 4.30803 18.4846 4.20959 18.2665 4.06595C18.0483 3.92232 17.8612 3.73642 17.7161 3.51924C17.5711 3.30206 17.471 3.058 17.4219 2.80149C17.3728 2.54499 17.3756 2.28123 17.4301 2.02582C17.4846 1.77041 17.5898 1.52852 17.7394 1.31445C17.8891 1.10038 18.0801 0.918477 18.3012 0.779488C18.732 0.50867 19.2515 0.416608 19.7492 0.522879C20.2469 0.62915 20.6834 0.92537 20.9661 1.34855C21.2487 1.77172 21.3551 2.28846 21.2627 2.78888C21.1702 3.2893 20.8862 3.73392 20.4711 4.02818ZM44.71 42.3896C44.9252 42.2367 45.1689 42.1286 45.4266 42.0716C45.6843 42.0145 45.9509 42.0097 46.2105 42.0575C46.4701 42.1053 46.7175 42.2046 46.938 42.3496C47.1586 42.4946 47.3478 42.6824 47.4946 42.9018C47.6413 43.1212 47.7425 43.3678 47.7923 43.627C47.8421 43.8863 47.8394 44.1528 47.7844 44.411C47.7293 44.6692 47.6231 44.9137 47.4719 45.1301C47.3208 45.3465 47.1278 45.5303 46.9043 45.6708C46.4691 45.9445 45.9444 46.0376 45.4417 45.9304C44.9389 45.8233 44.4978 45.5243 44.212 45.097C43.9263 44.6696 43.8184 44.1477 43.9114 43.6422C44.0044 43.1366 44.2909 42.6872 44.71 42.3896ZM46.7435 14.0674C47.3697 14.0674 47.9703 13.8186 48.4131 13.3758C48.8559 12.933 49.1047 12.3324 49.1047 11.7062C49.1047 11.0799 48.8559 10.4793 48.4131 10.0365C47.9703 9.59372 47.3697 9.34496 46.7435 9.34496C46.1173 9.34496 45.5167 9.59372 45.0739 10.0365C44.6311 10.4793 44.3823 11.0799 44.3823 11.7062C44.3823 12.3324 44.6311 12.933 45.0739 13.3758C45.5167 13.8186 46.1173 14.0674 46.7435 14.0674ZM9.46093 13.6684C9.2033 13.8484 8.91234 13.9752 8.60508 14.0413C8.29782 14.1074 7.98046 14.1115 7.6716 14.0534C7.36274 13.9952 7.0686 13.876 6.80641 13.7027C6.54423 13.5294 6.31928 13.3055 6.14476 13.0441C5.97023 12.7827 5.84965 12.4891 5.79007 12.1805C5.73049 11.8719 5.73311 11.5546 5.79779 11.247C5.86247 10.9394 5.9879 10.6479 6.16672 10.3894C6.34554 10.131 6.57416 9.91083 6.83918 9.74188C7.36014 9.39422 7.99787 9.26774 8.61208 9.39028C9.22629 9.51281 9.76666 9.87432 10.1143 10.3953C10.462 10.9162 10.5885 11.554 10.4659 12.1682C10.3434 12.7824 9.98188 13.3228 9.46093 13.6704V13.6684Z" fill="black"/>
<path d="M55.7589 26.2359C55.5053 26.3531 55.2312 26.4191 54.9522 26.4303C54.6731 26.4415 54.3946 26.3976 54.1325 26.301C51.9738 25.4933 49.6445 25.2505 47.3656 25.5957C45.0868 25.9409 42.9339 26.8626 41.1113 28.2734C45.8479 28.3956 50.4787 29.6861 54.5925 32.0371C55.5984 32.6049 56.3391 33.5474 56.6529 34.659C56.9668 35.7706 56.8285 36.9613 56.2681 37.9713C55.7078 38.9814 54.7708 39.729 53.6615 40.051C52.5522 40.3731 51.3606 40.2436 50.3464 39.6907C47.9112 38.2773 45.203 37.3987 42.4019 37.1134C39.6008 36.8281 36.7711 37.1425 34.1009 38.0358C34.7828 39.3446 35.2937 40.7369 35.6174 42.1781C35.7334 42.6076 35.7904 43.0533 35.7884 43.4971C35.8574 44.0596 35.806 44.6304 35.6376 45.1716C35.4691 45.7127 35.1875 46.2119 34.8113 46.6358C34.6485 46.7987 34.4673 46.9412 34.2719 47.0613C33.6705 47.639 32.9312 48.0531 32.1244 48.2643L6.19599 55.2054C5.36 55.4285 4.48001 55.4274 3.64456 55.2023C2.80912 54.9773 2.04769 54.5361 1.43691 53.9233C0.826131 53.3104 0.387545 52.5475 0.16529 51.7113C-0.0569654 50.8751 -0.0550489 49.9951 0.170847 49.1599L7.11197 23.2274C7.32514 22.4115 7.74589 21.6646 8.33328 21.0595C8.44916 20.8719 8.58572 20.6977 8.74039 20.5405C9.15105 20.1736 9.63397 19.8968 10.1581 19.7278C10.6822 19.5588 11.2359 19.5014 11.7835 19.5594C12.2781 19.5471 12.7728 19.6102 13.2491 19.7466C14.5132 20.0322 15.739 20.4668 16.9008 21.0412C17.4707 17.7437 16.9211 14.3484 15.3355 11.401C15.0359 10.8423 14.9705 10.1874 15.1537 9.58041C15.3369 8.97345 15.7538 8.46414 16.3125 8.16452C16.8713 7.8649 17.5262 7.79952 18.1331 7.98275C18.7401 8.16598 19.2494 8.58282 19.549 9.14157C21.9296 13.5765 22.5294 18.7523 21.2263 23.6141C22.8064 24.7358 24.3086 25.9633 25.7227 27.2882C26.1516 26.8535 26.7333 26.6035 27.3438 26.5917C27.9543 26.5798 28.5453 26.807 28.9907 27.2248C29.4361 27.6425 29.7006 28.2178 29.7278 28.8278C29.755 29.4378 29.5427 30.0344 29.1363 30.4901C32.0851 29.3361 35.1855 28.6155 38.3409 28.3508C38.0907 28.1499 37.8889 27.8954 37.7505 27.6059C37.612 27.3164 37.5406 26.9995 37.5413 26.6787C37.5421 26.3578 37.6151 26.0413 37.755 25.7525C37.8948 25.4637 38.0978 25.2101 38.3491 25.0105C40.7516 23.1104 43.6041 21.8627 46.6302 21.3885C49.6564 20.9142 52.7538 21.2293 55.6225 22.3032C56.0156 22.4522 56.356 22.714 56.6009 23.0557C56.8457 23.3975 56.9841 23.804 56.9987 24.2242C57.0133 24.6444 56.9034 25.0595 56.6828 25.4174C56.4622 25.7753 56.1408 26.06 55.7589 26.2359ZM19.3475 41.2112L18.979 40.8957L19.3169 41.1847L19.3475 41.2112ZM19.3475 41.2112L19.6162 41.4392C19.5271 41.3619 19.4375 41.2873 19.3475 41.2112ZM4.17471 53.237C4.66324 53.3693 5.18026 53.3693 5.67082 53.2391L6.84735 52.9317C5.18357 51.7254 3.68908 50.3014 2.40381 48.6978L2.13716 49.6952C2.03827 50.0616 2.01253 50.4438 2.06142 50.8201C2.11031 51.1964 2.23287 51.5594 2.42209 51.8883C2.61131 52.2172 2.86348 52.5056 3.16421 52.737C3.46493 52.9685 3.80831 53.1384 4.17471 53.237ZM7.4234 48.134C8.87188 49.4703 10.5022 50.5949 12.2659 51.4743L17.9613 49.9497C15.745 48.6401 13.677 47.0942 11.7937 45.3392C9.33132 43.0128 7.18148 40.3764 5.39806 37.4964L3.78186 43.5398C4.77115 45.2365 5.99734 46.7835 7.4234 48.134ZM14.5823 42.3633C17.2988 44.8714 20.4154 46.9078 23.8032 48.3884L28.8737 47.0287C24.2368 45.1954 20.0597 42.365 16.6382 38.738C15.4401 37.5467 14.3093 36.2895 13.2511 34.9723C12.7829 34.3922 12.3473 33.8121 11.9402 33.236C10.4171 31.1795 9.20198 28.9118 8.33328 26.5046L6.90231 31.9211C8.84488 35.8163 11.4427 39.3485 14.5823 42.3633ZM54.3442 34.4044C54.1444 34.1624 53.8979 33.963 53.6195 33.8182H53.6093C50.1596 31.845 46.3138 30.6648 42.3511 30.363C38.3884 30.0613 34.4083 30.6457 30.6996 32.0737L30.3088 32.2162L30.3271 32.2366C26.4706 33.7809 23.0275 36.2036 20.2716 39.312C20.7988 39.7741 21.3097 40.1975 21.8166 40.6046C22.527 41.1745 23.2414 41.7017 24.0556 42.233C26.2769 39.6766 29.0926 37.7054 32.2547 36.4929C35.338 35.2834 38.6537 34.7822 41.9567 35.0264C45.2598 35.2705 48.4657 36.2538 51.3377 37.9035C51.8115 38.1876 52.3705 38.2951 52.9159 38.2068C53.4612 38.1185 53.9578 37.8402 54.3177 37.4211C54.6777 37.0019 54.8777 36.469 54.8826 35.9166C54.8874 35.3641 54.6967 34.8298 54.3442 34.4044Z" fill="black"/>
</svg>
