<svg width="47" height="59" viewBox="0 0 47 59" fill="none" xmlns="http://www.w3.org/2000/svg">
<path d="M33.7813 38.1875H38.1875V35.25H33.7813V38.1875ZM38.1875 44.0625H33.7813V41.125H38.1875V44.0625ZM33.7813 49.9375H38.1875V47H33.7813V49.9375Z" fill="black"/>
<path fill-rule="evenodd" clip-rule="evenodd" d="M13.2188 0L36.7188 8.8125V29.375H42.5938C42.9833 29.375 43.3569 29.5297 43.6323 29.8052C43.9078 30.0806 44.0625 30.4542 44.0625 30.8438V55.8125H45.5313C45.9208 55.8125 46.2944 55.9672 46.5698 56.2427C46.8453 56.5181 47 56.8917 47 57.2812C47 57.6708 46.8453 58.0444 46.5698 58.3198C46.2944 58.5953 45.9208 58.75 45.5313 58.75H1.46875C1.07921 58.75 0.705631 58.5953 0.430187 58.3198C0.154743 58.0444 0 57.6708 0 57.2812C0 56.8917 0.154743 56.5181 0.430187 56.2427C0.705631 55.9672 1.07921 55.8125 1.46875 55.8125H2.9375V24.9688C2.9375 24.5792 3.09224 24.2056 3.36769 23.9302C3.64313 23.6547 4.01671 23.5 4.40625 23.5H7.34375V13.2188H10.2813V23.5H13.2188V0ZM41.125 55.8125H38.1875V52.875H33.7813V55.8125H30.8438V32.3125H41.125V55.8125ZM13.2188 26.4375H5.875V55.8125H13.2188V26.4375ZM20.5625 13.2188H17.625V16.1562H20.5625V13.2188ZM23.5 13.2188H26.4375V16.1562H23.5V13.2188ZM32.3125 13.2188H29.375V16.1562H32.3125V13.2188ZM17.625 19.0938H20.5625V22.0312H17.625V19.0938ZM26.4375 19.0938H23.5V22.0312H26.4375V19.0938ZM29.375 19.0938H32.3125V22.0312H29.375V19.0938ZM20.5625 24.9688H17.625V27.9062H20.5625V24.9688ZM23.5 24.9688H26.4375V27.9062H23.5V24.9688ZM32.3125 24.9688H29.375V27.9062H32.3125V24.9688ZM17.625 30.8438H20.5625V33.7812H17.625V30.8438ZM26.4375 30.8438H23.5V33.7812H26.4375V30.8438ZM20.5625 36.7188H17.625V39.6562H20.5625V36.7188ZM23.5 36.7188H26.4375V39.6562H23.5V36.7188ZM17.625 42.5938H20.5625V45.5312H17.625V42.5938ZM26.4375 42.5938H23.5V45.5312H26.4375V42.5938ZM20.5625 48.4688H17.625V51.4062H20.5625V48.4688ZM23.5 48.4688H26.4375V51.4062H23.5V48.4688Z" fill="black"/>
</svg>
