<svg width="60" height="60" viewBox="0 0 60 60" fill="none" xmlns="http://www.w3.org/2000/svg">
<path d="M30.309 38.334L50.43 18.24C50.6253 18.0436 50.8581 17.8885 51.1145 17.7837C51.3709 17.6789 51.6457 17.6267 51.9226 17.63C52.1996 17.6334 52.473 17.6923 52.7268 17.8032C52.9806 17.9142 53.2095 18.0749 53.4 18.276C53.7903 18.6872 54.0049 19.2344 53.9982 19.8013C53.9915 20.3682 53.764 20.9101 53.364 21.312L31.755 42.891C31.5611 43.0862 31.3302 43.2408 31.0759 43.3457C30.8216 43.4507 30.5489 43.5039 30.2737 43.5022C29.9986 43.5005 29.7265 43.444 29.4735 43.336C29.2205 43.2279 28.9915 43.0705 28.8 42.873L6.615 20.16C6.22237 19.7534 6.00293 19.2102 6.00293 18.645C6.00293 18.0797 6.22237 17.5366 6.615 17.13C6.80794 16.9313 7.03878 16.7734 7.29386 16.6655C7.54893 16.5576 7.82306 16.5021 8.1 16.5021C8.37694 16.5021 8.65107 16.5576 8.90615 16.6655C9.16122 16.7734 9.39206 16.9313 9.585 17.13L30.309 38.334Z" fill="white" fill-opacity="0.85"/>
</svg>
