<svg width="62" height="56" viewBox="0 0 62 56" fill="none" xmlns="http://www.w3.org/2000/svg">
<path d="M42.9993 6.98553L51.9996 15.9882L45.9994 18.9891L57.9999 30.9928L48.9995 33.9937L61 45.9973H33.9989M39.9992 55V45.9973M18.9984 30.9928L12.9981 24.991M18.9984 27.9919L24.9986 21.9901M18.9984 55V15.9882M12.4701 39.9955C11.1575 39.9186 9.87761 39.555 8.72056 38.9302C7.56352 38.3054 6.55739 37.4346 5.77295 36.379C4.98851 35.3235 4.44481 34.1089 4.1801 32.8206C3.91539 31.5322 3.93611 30.2016 4.24078 28.9221C3.15315 28.0162 2.29447 26.8664 1.73446 25.5662C1.17445 24.2659 0.928901 22.8519 1.01775 21.439C1.10661 20.026 1.52736 18.6539 2.24583 17.4342C2.96431 16.2144 3.96026 15.1813 5.15281 14.4188C4.10689 12.5602 3.75461 10.3905 4.15876 8.29635C4.5629 6.2022 5.69722 4.31957 7.35959 2.98392C9.02197 1.64827 11.1044 0.946338 13.2359 1.0032C15.3674 1.06007 17.4095 1.87203 18.9984 3.29442C20.5876 1.87428 22.629 1.06424 24.7593 1.00848C26.8896 0.952721 28.9705 1.65485 30.6318 2.98991C32.2931 4.32498 33.4269 6.20634 33.8314 8.29918C34.2359 10.392 33.8849 12.5605 32.8409 14.4188C34.0336 15.181 35.0298 16.2139 35.7486 17.4336C36.4673 18.6532 36.8884 20.0252 36.9775 21.4382C37.0667 22.8512 36.8214 24.2653 36.2617 25.5656C35.7019 26.866 34.8434 28.0159 33.7559 28.9221C34.0709 30.2449 34.0821 31.6219 33.7889 32.9496C33.4957 34.2774 32.9056 35.5215 32.0629 36.5885C31.2202 37.6555 30.1468 38.5177 28.9233 39.1103C27.6998 39.703 26.358 40.0108 24.9986 40.0105H12.9981L12.4701 39.9955Z" stroke="black" stroke-width="2" stroke-linecap="round" stroke-linejoin="round"/>
</svg>
