<svg width="62" height="56" viewBox="0 0 62 56" fill="none" xmlns="http://www.w3.org/2000/svg">
<path d="M5.56278 56C3.97833 56 2.65567 55.461 1.59478 54.383C0.531593 53.3027 0 51.9575 0 50.3475V36.75H24.1111V42H37.8889V36.75H62V50.3475C62 51.9575 61.4696 53.3015 60.4087 54.3795C59.3455 55.4598 58.0217 56 56.4372 56H5.56278ZM27.5556 38.5V31.5H34.4444V38.5H27.5556ZM0 33.25V16.1525C0 14.5425 0.531593 13.1985 1.59478 12.1205C2.65567 11.0402 3.97833 10.5 5.56278 10.5H20.6667V5.6525C20.6667 4.0425 21.1983 2.6985 22.2614 1.6205C23.3223 0.540166 24.6439 0 26.226 0H35.7671C37.3516 0 38.6754 0.540166 39.7386 1.6205C40.7994 2.6985 41.3299 4.0425 41.3299 5.6525V10.5H56.4338C58.0182 10.5 59.3409 11.0402 60.4018 12.1205C61.465 13.1985 61.9966 14.5425 61.9966 16.1525V33.25H37.8854V28H24.1077V33.25H0ZM24.1111 10.5H37.8889V5.6525C37.8889 5.11583 37.6684 4.62233 37.2276 4.172C36.7844 3.724 36.2987 3.5 35.7706 3.5H26.2294C25.7013 3.5 25.2156 3.724 24.7724 4.172C24.3316 4.62233 24.1111 5.11583 24.1111 5.6525V10.5Z" fill="black"/>
</svg>
