<svg width="48" height="35" viewBox="0 0 48 35" fill="none" xmlns="http://www.w3.org/2000/svg">
<path d="M19.2 25L31.656 17.5L19.2 10V25ZM46.944 5.425C47.256 6.6 47.472 8.175 47.616 10.175C47.784 12.175 47.856 13.9 47.856 15.4L48 17.5C48 22.975 47.616 27 46.944 29.575C46.344 31.825 44.952 33.275 42.792 33.9C41.664 34.225 39.6 34.45 36.432 34.6C33.312 34.775 30.456 34.85 27.816 34.85L24 35C13.944 35 7.68 34.6 5.208 33.9C3.048 33.275 1.656 31.825 1.056 29.575C0.744 28.4 0.528 26.825 0.384 24.825C0.216 22.825 0.144 21.1 0.144 19.6L0 17.5C0 12.025 0.384 8 1.056 5.425C1.656 3.175 3.048 1.725 5.208 1.1C6.336 0.775 8.4 0.55 11.568 0.4C14.688 0.225 17.544 0.15 20.184 0.15L24 0C34.056 0 40.32 0.4 42.792 1.1C44.952 1.725 46.344 3.175 46.944 5.425Z" fill="#E3E3E3"/>
</svg>
