<svg width="20" height="20" viewBox="0 0 20 20" fill="none" xmlns="http://www.w3.org/2000/svg">
<path fill-rule="evenodd" clip-rule="evenodd" d="M10 16.1905C11.6418 16.1905 13.2164 15.5383 14.3773 14.3773C15.5383 13.2164 16.1905 11.6418 16.1905 10C16.1905 8.35818 15.5383 6.78361 14.3773 5.62267C13.2164 4.46173 11.6418 3.80952 10 3.80952C8.35818 3.80952 6.78361 4.46173 5.62267 5.62267C4.46173 6.78361 3.80952 8.35818 3.80952 10C3.80952 11.6418 4.46173 13.2164 5.62267 14.3773C6.78361 15.5383 8.35818 16.1905 10 16.1905ZM10 20C11.3132 20 12.6136 19.7413 13.8268 19.2388C15.0401 18.7362 16.1425 17.9997 17.0711 17.0711C17.9997 16.1425 18.7362 15.0401 19.2388 13.8268C19.7413 12.6136 20 11.3132 20 10C20 8.68678 19.7413 7.38642 19.2388 6.17317C18.7362 4.95991 17.9997 3.85752 17.0711 2.92893C16.1425 2.00035 15.0401 1.26375 13.8268 0.761205C12.6136 0.258658 11.3132 -1.95685e-08 10 0C7.34784 3.95203e-08 4.8043 1.05357 2.92893 2.92893C1.05357 4.8043 0 7.34784 0 10C0 12.6522 1.05357 15.1957 2.92893 17.0711C4.8043 18.9464 7.34784 20 10 20Z" fill="white" fill-opacity="0.7"/>
</svg>
